<svg width="48" height="48" xmlns="http://www.w3.org/2000/svg" xmlns:xlink="http://www.w3.org/1999/xlink">
 <defs>
  <radialGradient xlink:href="#linearGradient5060" r="117.14286" id="radialGradient5031" gradientUnits="userSpaceOnUse" gradientTransform="matrix(-2.774389,0,0,1.969706,112.7623,-872.8854)" fy="486.64789" fx="605.71429" cy="486.64789" cx="605.71429"/>
  <linearGradient id="linearGradient5060">
   <stop stop-color="black" offset="0" id="stop5062"/>
   <stop stop-color="black" stop-opacity="0" offset="1" id="stop5064"/>
  </linearGradient>
  <radialGradient xlink:href="#linearGradient5060" r="117.14286" id="radialGradient5029" gradientUnits="userSpaceOnUse" gradientTransform="matrix(2.774389,0,0,1.969706,-1891.633,-872.8854)" fy="486.64789" fx="605.71429" cy="486.64789" cx="605.71429"/>
  <linearGradient id="linearGradient5048">
   <stop stop-color="black" stop-opacity="0" offset="0" id="stop5050"/>
   <stop stop-color="black" offset="0.5" id="stop5056"/>
   <stop stop-color="black" stop-opacity="0" offset="1" id="stop5052"/>
  </linearGradient>
  <linearGradient y2="Infinity" y1="-Infinity" xlink:href="#linearGradient5048" x2="-Infinity" x1="-Infinity" id="linearGradient5027"/>
  <linearGradient id="linearGradient2223">
   <stop stop-color="#ffffff" offset="0" id="stop2225"/>
   <stop stop-color="#ffffff" stop-opacity="0" offset="1" id="stop2229"/>
  </linearGradient>
  <linearGradient id="linearGradient2222">
   <stop stop-color="#5187d6" offset="0" id="stop2224"/>
   <stop stop-color="#1e4580" offset="1" id="stop2227"/>
  </linearGradient>
  <linearGradient id="linearGradient2238">
   <stop stop-color="#ffffff" offset="0" id="stop2240"/>
   <stop stop-color="#ffffff" stop-opacity="0" offset="1" id="stop2242"/>
  </linearGradient>
  <linearGradient id="linearGradient2214">
   <stop stop-color="#a9aaa7" offset="0" id="stop2216"/>
   <stop stop-color="#676964" offset="1" id="stop2218"/>
  </linearGradient>
  <linearGradient id="linearGradient2206">
   <stop stop-color="#c3c6c0" offset="0" id="stop2208"/>
   <stop stop-color="#e8eae6" offset="1" id="stop2210"/>
  </linearGradient>
  <linearGradient id="linearGradient2180">
   <stop stop-color="#ffffff" offset="0" id="stop2182"/>
   <stop stop-color="#ffffff" stop-opacity="0" offset="1" id="stop2184"/>
  </linearGradient>
  <linearGradient y2="Infinity" y1="Infinity" xlink:href="#linearGradient2206" x2="Infinity" x1="Infinity" id="linearGradient2212"/>
  <linearGradient y2="Infinity" y1="Infinity" xlink:href="#linearGradient2214" x2="Infinity" x1="Infinity" id="linearGradient2220"/>
  <linearGradient y2="Infinity" y1="Infinity" xlink:href="#linearGradient2238" x2="Infinity" x1="Infinity" id="linearGradient2244"/>
  <linearGradient y2="Infinity" y1="Infinity" xlink:href="#linearGradient2180" x2="Infinity" x1="Infinity" id="linearGradient1340"/>
  <radialGradient xlink:href="#linearGradient2222" r="19.088932" id="radialGradient2229" gradientUnits="userSpaceOnUse" gradientTransform="matrix(1.768625,-1.961257e-23,1.552064e-23,1.387102,-18.44248,-15.29268)" fy="32.266911" fx="23.994133" cy="32.266911" cx="23.994133"/>
  <linearGradient y2="Infinity" y1="Infinity" xlink:href="#linearGradient2223" x2="Infinity" x1="Infinity" id="linearGradient2231"/>
 </defs>
 <g>
  <title>background</title>
  <rect fill="none" id="canvas_background" height="402" width="582" y="-1" x="-1"/>
 </g>
 <g>
  <title>Layer 1</title>
  <rect transform="matrix(0.02454499,0,0,0.02086758,45.89369,40.09109) " opacity="0.402062" fill="url(#linearGradient5027)" fill-rule="nonzero" stroke-linecap="round" stroke-miterlimit="4" stroke-dashoffset="0" y="-150.69685" x="-1559.2523" width="1339.6335" id="rect4173" height="478.35718"/>
  <path opacity="0.402062" fill="url(#radialGradient5029)" fill-rule="nonzero" stroke-linecap="round" marker-start="none" marker-mid="none" marker-end="none" stroke-miterlimit="4" stroke-dashoffset="0" id="path5058" d="m40.50315,36.946755c0,0 0,9.981606 0,9.981606c3.506845,0.01879 8.477845,-2.236371 8.477843,-4.991445c0,-2.755074 -3.913375,-4.99016 -8.477843,-4.990161z"/>
  <path opacity="0.402062" fill="url(#radialGradient5031)" fill-rule="nonzero" stroke-linecap="round" marker-start="none" marker-mid="none" marker-end="none" stroke-miterlimit="4" stroke-dashoffset="0" id="path5018" d="m7.621858,36.946755c0,0 0,9.981606 0,9.981606c-3.506846,0.01879 -8.477844,-2.236371 -8.477844,-4.991445c0,-2.755074 3.913375,-4.99016 8.477844,-4.990161z"/>
  <rect fill="url(#linearGradient2212)" fill-rule="evenodd" stroke="url(#linearGradient2220)" stroke-width="1" stroke-linecap="round" stroke-linejoin="round" stroke-miterlimit="4" stroke-dashoffset="0" y="1.66008" x="1.619949" width="44.759838" ry="4.565993" rx="4.565991" id="rect1316" height="41.701817"/>
  <rect fill="url(#radialGradient2229)" fill-rule="evenodd" stroke="#173562" stroke-width="1" stroke-linecap="round" stroke-linejoin="round" stroke-miterlimit="4" stroke-dashoffset="0" y="5.481554" x="5.405202" width="37.177864" ry="1.694671" rx="1.694671" id="rect1314" height="28.954594"/>
  <path fill="#ecffd9" fill-rule="evenodd" stroke="#c3ea9b" stroke-miterlimit="10" stroke-opacity="0.416185" id="path2188" d="m12.39069,20.93525l-6.02183,0l0,1.217l7.71879,0l1.40592,-5.91312l3.46251,13.69752l3.20872,-10.8197l2.89455,5.91181l3.88696,-3.51197l12.70843,0l0,-2.05965l-13.14951,0l-3.17021,3.1396l-3.27546,-6.65915l-3.00984,8.1749l-3.26853,-12.86378l-3.3905,9.68654z"/>
  <rect fill="none" fill-rule="evenodd" stroke="url(#linearGradient2244)" stroke-width="1" stroke-linecap="round" stroke-linejoin="round" stroke-miterlimit="4" stroke-dashoffset="0" y="2.654434" x="2.553669" width="42.894741" ry="4.130334" rx="4.130333" id="rect2232" height="39.646549"/>
  <path opacity="0.380682" fill="#ecffd9" fill-rule="evenodd" stroke="#c3ea9b" stroke-width="1" stroke-miterlimit="4" stroke-opacity="0.416185" id="path3088" d="m11.51569,20.01228l-5.14683,0l0,3.04875l8.59379,-0.125l0.65592,-3.04264l3.34466,12.70834l3.57657,-11.46664l2.51955,5.4161l4.26196,-4.10858l12.33343,-0.125l-0.75,-3.90954l-12.39951,-0.125l-3.04521,3.17296l-3.40046,-7.79041l-2.63484,6.93865l-3.51853,-12.27061l-4.3905,11.67862z"/>
  <path opacity="0.431818" fill="url(#linearGradient1340)" fill-rule="evenodd" stroke-linecap="round" stroke-linejoin="round" stroke-miterlimit="4" stroke-dashoffset="0" id="rect2178" d="m6.84375,6.96875l0,8.82632c3.6699,0.68811 7.73882,1.07993 12.03125,1.07993c8.93529,0 16.93726,-1.66481 22.28125,-4.27817l0,-5.62808l-34.3125,0z"/>
  <path opacity="0.08" fill="#000000" fill-rule="nonzero" stroke="#000000" marker-start="none" marker-mid="none" marker-end="none" stroke-miterlimit="10" stroke-dashoffset="0" id="path3120" d="m39.3125,38.5l-1.0625,-0.46875c-0.25681,-0.13957 -0.56234,-0.21875 -0.875,-0.21875c-1.0005,0 -1.8125,0.812 -1.8125,1.8125c0,1.0005 0.812,1.8125 1.8125,1.8125c0.96923,0 1.76393,-0.76152 1.8125,-1.71875c0.00039,-0.00772 -0.0003,-0.02351 0,-0.03125l0.125,-1.1875z"/>
  <path opacity="0.08" fill="#000000" fill-rule="nonzero" stroke="#000000" marker-start="none" marker-mid="none" marker-end="none" stroke-miterlimit="10" stroke-dashoffset="0" id="path3122" d="m29.18003,38.23216l-0.09939,1.16518c-0.03733,0.28989 -0.00074,0.60339 0.11225,0.89491c0.36156,0.93289 1.41213,1.39656 2.34501,1.035c0.93288,-0.36157 1.39656,-1.41214 1.03499,-2.34502c-0.35026,-0.90373 -1.34751,-1.36951 -2.2576,-1.06887c-0.00734,0.00242 -0.02181,0.00877 -0.02914,0.01129l-1.10612,0.30751z"/>
  <path opacity="0.08" fill="#000000" fill-rule="nonzero" stroke="#000000" marker-start="none" marker-mid="none" marker-end="none" stroke-miterlimit="10" stroke-dashoffset="0" id="path3124" d="m25.6875,38.5l-0.9375,-0.46875c-0.25681,-0.13957 -0.56234,-0.21875 -0.875,-0.21875c-1.0005,0 -1.8125,0.812 -1.8125,1.8125c0,1.0005 0.812,1.8125 1.8125,1.8125c0.96923,0 1.76393,-0.76152 1.8125,-1.71875c0.00039,-0.00772 -0.0003,-0.02351 0,-0.03125l0,-1.1875z"/>
  <path fill="#ff7f00" fill-rule="nonzero" stroke="#9b9d99" marker-start="none" marker-mid="none" marker-end="none" stroke-miterlimit="10" stroke-dashoffset="0" id="path3111" d="m39.125,37.8125l-1.0625,-0.46875c-0.25681,-0.13957 -0.56234,-0.21875 -0.875,-0.21875c-1.0005,0 -1.8125,0.812 -1.8125,1.8125c0,1.0005 0.812,1.8125 1.8125,1.8125c0.96923,0 1.76393,-0.76152 1.8125,-1.71875c0.00039,-0.00772 -0.0003,-0.02351 0,-0.03125l0.125,-1.1875z"/>
  <path fill="#ff0000" fill-rule="nonzero" stroke="#9b9d99" marker-start="none" marker-mid="none" marker-end="none" stroke-miterlimit="10" stroke-dashoffset="0" id="path3116" d="m28.99253,37.54466l-0.09939,1.16518c-0.03733,0.28989 -0.00074,0.60339 0.11225,0.89491c0.36156,0.93289 1.41213,1.39656 2.34501,1.035c0.93288,-0.36157 1.39656,-1.41214 1.03499,-2.34502c-0.35026,-0.90373 -1.34751,-1.36951 -2.2576,-1.06887c-0.00734,0.00242 -0.02181,0.00877 -0.02914,0.01129l-1.10612,0.30751z"/>
  <path fill="#ffff00" fill-rule="nonzero" stroke="#9b9d99" marker-start="none" marker-mid="none" marker-end="none" stroke-miterlimit="10" stroke-dashoffset="0" id="path3118" d="m25.5,37.8125l-0.9375,-0.46875c-0.25681,-0.13957 -0.56234,-0.21875 -0.875,-0.21875c-1.0005,0 -1.8125,0.812 -1.8125,1.8125c0,1.0005 0.812,1.8125 1.8125,1.8125c0.96923,0 1.76393,-0.76152 1.8125,-1.71875c0.00039,-0.00772 -0.0003,-0.02351 0,-0.03125l0,-1.1875z"/>
  <rect opacity="0.573864" fill="#ffff00" fill-rule="evenodd" stroke="url(#linearGradient2231)" stroke-linecap="round" stroke-linejoin="round" stroke-miterlimit="4" stroke-dashoffset="0" y="4.635767" x="4.319206" width="39.349869" ry="2.569672" rx="2.569672" id="rect2221" height="30.646179"/>
 </g>
</svg>