<svg width="428.4462646484375px" height="70.978759765625px" xmlns="http://www.w3.org/2000/svg" viewBox="35.77686767578126 39.5106201171875 428.4462646484375 70.978759765625" style="background: none;" preserveAspectRatio="xMidYMid"><defs><linearGradient id="editing-shadow-gradient1" x1="0" x2="0" y1="0" y2="1"><stop offset="0" stop-color="none" stop-opacity="0"></stop><stop offset="0.2" stop-color="none" stop-opacity="0"></stop><stop offset="1" stop-color="none" stop-opacity="1"></stop></linearGradient><linearGradient id="editing-shadow-gradient2" x1="-0.254709580222772" x2="1.2547095802227721" y1="-0.15605902899050716" y2="1.1560590289905073"><stop offset="0" stop-color="#fec918"></stop><stop offset="1" stop-color="#fec918"></stop></linearGradient><filter id="editing-shadow" x="-100%" y="-100%" width="300%" height="300%"><feGaussianBlur stdDeviation="2"></feGaussianBlur><feComposite operator="in" in2="SourceGraphic"></feComposite><feGaussianBlur stdDeviation="1"></feGaussianBlur></filter></defs><g transform="translate(250,75)"><g transform="translate(-9.6, -1.2)"><g transform="skewX(45)"><g filter="url(#editing-shadow)"><g transform="translate(-131.27499878406525, 12.584062576293945)"><path d="M8.93 0.34L8.93 0.34Q5.35 0.34 3.36-2.18L3.36-2.18L3.36-2.18Q1.37-4.70 1.37-9.60L1.37-9.60L1.37-9.60Q1.37-14.50 3.36-17.02L3.36-17.02L3.36-17.02Q5.35-19.54 8.93-19.54L8.93-19.54L8.93-19.54Q12.52-19.54 14.50-17.02L14.50-17.02L14.50-17.02Q16.49-14.50 16.49-9.60L16.49-9.60L16.49-9.60Q16.49-4.70 14.50-2.18L14.50-2.18L14.50-2.18Q12.52 0.34 8.93 0.34L8.93 0.34ZM8.93-1.93L8.93-1.93Q11.28-1.93 12.60-3.70L12.60-3.70L12.60-3.70Q13.92-5.46 13.92-8.90L13.92-8.90L13.92-10.30L13.92-10.30Q13.92-13.75 12.60-15.51L12.60-15.51L12.60-15.51Q11.28-17.28 8.93-17.28L8.93-17.28L8.93-17.28Q6.58-17.28 5.26-15.51L5.26-15.51L5.26-15.51Q3.95-13.75 3.95-10.30L3.95-10.30L3.95-8.90L3.95-8.90Q3.95-5.46 5.26-3.70L5.26-3.70L5.26-3.70Q6.58-1.93 8.93-1.93L8.93-1.93ZM19.54 0L19.54-14.73L21.28-14.73L21.59-13.02L21.76-13.02L21.76-13.02Q22.90-15.06 25.31-15.06L25.31-15.06L25.31-15.06Q27.08-15.06 28.01-14.01L28.01-14.01L28.01-14.01Q28.95-12.96 28.95-10.61L28.95-10.61L28.95 0L26.66 0L26.66-10.44L26.66-10.44Q26.66-11.87 26.12-12.45L26.12-12.45L26.12-12.45Q25.59-13.02 24.58-13.02L24.58-13.02L24.58-13.02Q23.44-13.02 22.64-11.93L22.64-11.93L22.64-11.93Q21.84-10.84 21.84-8.99L21.84-8.99L21.84 0L19.54 0ZM32.03 0L32.03-20.24L34.33-20.24L34.33 0L32.03 0ZM37.13-17.50L37.13-20.24L39.42-20.24L39.42-17.50L37.13-17.50ZM37.13 0L37.13-14.73L39.42-14.73L39.42 0L37.13 0ZM42.50 0L42.50-14.73L44.24-14.73L44.55-13.02L44.72-13.02L44.72-13.02Q45.86-15.06 48.27-15.06L48.27-15.06L48.27-15.06Q50.04-15.06 50.97-14.01L50.97-14.01L50.97-14.01Q51.91-12.96 51.91-10.61L51.91-10.61L51.91 0L49.62 0L49.62-10.44L49.62-10.44Q49.62-11.87 49.08-12.45L49.08-12.45L49.08-12.45Q48.55-13.02 47.54-13.02L47.54-13.02L47.54-13.02Q46.40-13.02 45.60-11.93L45.60-11.93L45.60-11.93Q44.80-10.84 44.80-8.99L44.80-8.99L44.80 0L42.50 0ZM60.34 0.34L60.34 0.34Q57.54 0.34 56.15-1.50L56.15-1.50L56.15-1.50Q54.77-3.33 54.77-7.36L54.77-7.36L54.77-7.36Q54.77-11.31 56.14-13.19L56.14-13.19L56.14-13.19Q57.51-15.06 60.31-15.06L60.31-15.06L60.31-15.06Q62.78-15.06 63.97-13.43L63.97-13.43L63.97-13.43Q65.16-11.79 65.16-8.15L65.16-8.15L65.16-6.69L57.18-6.69L57.18-6.69Q57.20-4.12 57.97-2.91L57.97-2.91L57.97-2.91Q58.74-1.71 60.40-1.71L60.40-1.71L60.40-1.71Q61.52-1.71 62.20-2.60L62.20-2.60L62.20-2.60Q62.89-3.50 62.89-5.01L62.89-5.01L65.16-5.01L65.16-5.01Q65.16-2.55 63.83-1.11L63.83-1.11L63.83-1.11Q62.50 0.34 60.34 0.34L60.34 0.34ZM57.20-8.74L62.75-8.74L62.75-8.74Q62.75-10.84 62.13-11.93L62.13-11.93L62.13-11.93Q61.52-13.02 60.31-13.02L60.31-13.02L60.31-13.02Q58.83-13.02 58.09-11.97L58.09-11.97L58.09-11.97Q57.34-10.92 57.20-8.74L57.20-8.74ZM74.48 0L74.48-19.21L78.23-19.21L81.62-6.61L81.62-6.61Q81.84-5.74 82.03-4.26L82.03-4.26L82.03-4.26Q82.21-2.77 82.26-2.30L82.26-2.30L82.38-2.30L82.38-2.30Q82.40-2.77 82.59-4.27L82.59-4.27L82.59-4.27Q82.77-5.77 82.99-6.61L82.99-6.61L86.41-19.21L90.13-19.21L90.13 0L87.67 0L87.67-13.94L87.67-13.94Q87.67-14.36 87.75-15.46L87.75-15.46L87.75-15.46Q87.84-16.55 87.86-16.91L87.86-16.91L87.75-16.91L87.75-16.91Q87.67-16.55 87.44-15.46L87.44-15.46L87.44-15.46Q87.22-14.36 87.11-13.94L87.11-13.94L83.27 0L81.06 0L77.22-13.94L77.22-13.94Q77.06-14.64 76.89-15.58L76.89-15.58L76.89-15.58Q76.72-16.52 76.64-16.91L76.64-16.91L76.52-16.91L76.52-16.91Q76.55-16.52 76.61-15.58L76.61-15.58L76.61-15.58Q76.66-14.64 76.69-13.94L76.69-13.94L76.69 0L74.48 0ZM98.25 0.34L98.25 0.34Q95.65 0.34 94.32-1.55L94.32-1.55L94.32-1.55Q92.99-3.44 92.99-7.36L92.99-7.36L92.99-7.36Q92.99-11.28 94.32-13.17L94.32-13.17L94.32-13.17Q95.65-15.06 98.25-15.06L98.25-15.06L98.25-15.06Q100.86-15.06 102.19-13.17L102.19-13.17L102.19-13.17Q103.52-11.28 103.52-7.36L103.52-7.36L103.52-7.36Q103.52-3.44 102.19-1.55L102.19-1.55L102.19-1.55Q100.86 0.34 98.25 0.34L98.25 0.34ZM98.25-1.71L98.25-1.71Q101.11-1.71 101.11-6.83L101.11-6.83L101.11-7.90L101.11-7.90Q101.11-13.02 98.25-13.02L98.25-13.02L98.25-13.02Q95.40-13.02 95.40-7.90L95.40-7.90L95.40-6.83L95.40-6.83Q95.40-1.71 98.25-1.71L98.25-1.71ZM106.32 0L106.32-14.73L108.05-14.73L108.36-13.02L108.53-13.02L108.53-13.02Q109.68-15.06 112.08-15.06L112.08-15.06L112.08-15.06Q113.85-15.06 114.79-14.01L114.79-14.01L114.79-14.01Q115.72-12.96 115.72-10.61L115.72-10.61L115.72 0L113.43 0L113.43-10.44L113.43-10.44Q113.43-11.87 112.90-12.45L112.90-12.45L112.90-12.45Q112.36-13.02 111.36-13.02L111.36-13.02L111.36-13.02Q110.21-13.02 109.41-11.93L109.41-11.93L109.41-11.93Q108.61-10.84 108.61-8.99L108.61-8.99L108.61 0L106.32 0ZM118.80-17.50L118.80-20.24L121.10-20.24L121.10-17.50L118.80-17.50ZM118.80 0L118.80-14.73L121.10-14.73L121.10 0L118.80 0ZM126.78 0.28L126.78 0.28Q125.38 0.28 124.77-0.69L124.77-0.69L124.77-0.69Q124.15-1.65 124.15-3.11L124.15-3.11L124.15-12.68L122.89-12.68L122.89-14.73L124.15-14.73L124.66-18.82L126.45-18.82L126.45-14.73L128.44-14.73L128.44-12.68L126.45-12.68L126.45-3.05L126.45-3.05Q126.45-1.71 127.76-1.71L127.76-1.71L128.44-1.71L128.44-0.11L128.44-0.11Q128.13 0.06 127.67 0.17L127.67 0.17L127.67 0.17Q127.20 0.28 126.78 0.28L126.78 0.28ZM135.27 0.34L135.27 0.34Q132.66 0.34 131.33-1.55L131.33-1.55L131.33-1.55Q130.00-3.44 130.00-7.36L130.00-7.36L130.00-7.36Q130.00-11.28 131.33-13.17L131.33-13.17L131.33-13.17Q132.66-15.06 135.27-15.06L135.27-15.06L135.27-15.06Q137.87-15.06 139.20-13.17L139.20-13.17L139.20-13.17Q140.53-11.28 140.53-7.36L140.53-7.36L140.53-7.36Q140.53-3.44 139.20-1.55L139.20-1.55L139.20-1.55Q137.87 0.34 135.27 0.34L135.27 0.34ZM135.27-1.71L135.27-1.71Q138.12-1.71 138.12-6.83L138.12-6.83L138.12-7.90L138.12-7.90Q138.12-13.02 135.27-13.02L135.27-13.02L135.27-13.02Q132.41-13.02 132.41-7.90L132.41-7.90L132.41-6.83L132.41-6.83Q132.41-1.71 135.27-1.71L135.27-1.71ZM143.33 0L143.33-14.73L145.07-14.73L145.38-12.80L145.54-12.80L145.54-12.80Q145.85-13.78 146.47-14.42L146.47-14.42L146.47-14.42Q147.08-15.06 148.04-15.06L148.04-15.06L148.04-15.06Q148.43-15.06 148.74-14.97L148.74-14.97L148.74-14.97Q149.04-14.87 149.13-14.84L149.13-14.84L149.13-12.46L148.37-12.46L148.37-12.46Q147.17-12.46 146.40-11.63L146.40-11.63L146.40-11.63Q145.63-10.81 145.63-8.99L145.63-8.99L145.63 0L143.33 0ZM150.70-17.50L150.70-20.24L152.99-20.24L152.99-17.50L150.70-17.50ZM150.70 0L150.70-14.73L152.99-14.73L152.99 0L150.70 0ZM156.07 0L156.07-14.73L157.81-14.73L158.12-13.02L158.28-13.02L158.28-13.02Q159.43-15.06 161.84-15.06L161.84-15.06L161.84-15.06Q163.60-15.06 164.54-14.01L164.54-14.01L164.54-14.01Q165.48-12.96 165.48-10.61L165.48-10.61L165.48 0L163.18 0L163.18-10.44L163.18-10.44Q163.18-11.87 162.65-12.45L162.65-12.45L162.65-12.45Q162.12-13.02 161.11-13.02L161.11-13.02L161.11-13.02Q159.96-13.02 159.17-11.93L159.17-11.93L159.17-11.93Q158.37-10.84 158.37-8.99L158.37-8.99L158.37 0L156.07 0ZM171.16 5.10L171.16 5.10Q169.43 5.10 168.48 4.10L168.48 4.10L168.48 4.10Q167.52 3.11 167.52 1.60L167.52 1.60L167.52 1.60Q167.52 0.50 168.04-0.35L168.04-0.35L168.04-0.35Q168.56-1.20 169.43-1.54L169.43-1.54L169.43-1.54Q168.87-1.90 168.55-2.49L168.55-2.49L168.55-2.49Q168.22-3.08 168.22-3.75L168.22-3.75L168.22-3.75Q168.22-4.62 168.78-5.29L168.78-5.29L168.78-5.29Q169.34-5.96 170.30-6.30L170.30-6.30L170.30-6.30Q168.59-7.70 168.59-10.11L168.59-10.11L168.59-10.11Q168.59-12.43 169.88-13.75L169.88-13.75L169.88-13.75Q171.16-15.06 173.40-15.06L173.40-15.06L173.40-15.06Q174.55-15.06 175.53-14.53L175.53-14.53L175.53-14.53Q176.43-15.01 176.83-15.65L176.83-15.65L176.83-15.65Q177.24-16.30 177.35-17.11L177.35-17.11L179.37-17.11L179.37-17.11Q179.37-15.76 178.71-14.81L178.71-14.81L178.71-14.81Q178.05-13.86 176.90-13.58L176.90-13.58L176.90-13.58Q178.22-12.21 178.22-10.11L178.22-10.11L178.22-10.11Q178.22-7.84 176.95-6.51L176.95-6.51L176.95-6.51Q175.67-5.18 173.52-5.15L173.52-5.15L171.98-5.15L171.98-5.15Q171.42-5.15 171.02-4.77L171.02-4.77L171.02-4.77Q170.63-4.40 170.63-3.84L170.63-3.84L170.63-3.84Q170.63-3.30 171.02-2.91L171.02-2.91L171.02-2.91Q171.42-2.52 171.98-2.52L171.98-2.52L176.18-2.52L176.18-2.52Q177.74-2.52 178.70-1.53L178.70-1.53L178.70-1.53Q179.65-0.53 179.65 0.92L179.65 0.92L179.65 0.92Q179.65 2.74 178.51 3.92L178.51 3.92L178.51 3.92Q177.38 5.10 175.34 5.10L175.34 5.10L171.16 5.10ZM173.38-7.06L173.38-7.06Q174.58-7.06 175.24-7.87L175.24-7.87L175.24-7.87Q175.90-8.68 175.90-10.11L175.90-10.11L175.90-10.11Q175.90-11.59 175.24-12.38L175.24-12.38L175.24-12.38Q174.58-13.16 173.38-13.16L173.38-13.16L173.38-13.16Q172.17-13.16 171.53-12.35L171.53-12.35L171.53-12.35Q170.88-11.54 170.88-10.11L170.88-10.11L170.88-10.11Q170.88-8.62 171.53-7.84L171.53-7.84L171.53-7.84Q172.17-7.06 173.38-7.06L173.38-7.06ZM171.53 3.11L175.59 3.11L175.59 3.11Q176.32 3.11 176.82 2.60L176.82 2.60L176.82 2.60Q177.32 2.10 177.32 1.37L177.32 1.37L177.32 1.37Q177.32 0.62 176.88 0.14L176.88 0.14L176.88 0.14Q176.43-0.34 175.59-0.34L175.59-0.34L171.53-0.34L171.53-0.34Q170.69-0.34 170.25 0.14L170.25 0.14L170.25 0.14Q169.82 0.62 169.82 1.37L169.82 1.37L169.82 1.37Q169.82 2.13 170.27 2.62L170.27 2.62L170.27 2.62Q170.72 3.11 171.53 3.11L171.53 3.11ZM193.93 0.34L193.93 0.34Q191.07 0.34 189.27-1.06L189.27-1.06L189.27-1.06Q187.46-2.46 187.46-5.43L187.46-5.43L187.49-5.99L190.04-5.99L190.01-5.40L190.01-5.40Q190.01-3.70 191.06-2.81L191.06-2.81L191.06-2.81Q192.11-1.93 193.82-1.93L193.82-1.93L193.82-1.93Q195.75-1.93 196.80-2.76L196.80-2.76L196.80-2.76Q197.85-3.58 197.85-5.12L197.85-5.12L197.85-5.12Q197.85-6.16 197.27-6.82L197.27-6.82L197.27-6.82Q196.70-7.48 195.85-7.87L195.85-7.87L195.85-7.87Q194.99-8.26 193.51-8.74L193.51-8.74L193.51-8.74Q191.69-9.35 190.57-9.91L190.57-9.91L190.57-9.91Q189.45-10.47 188.65-11.55L188.65-11.55L188.65-11.55Q187.85-12.63 187.85-14.39L187.85-14.39L187.85-14.39Q187.85-16.91 189.56-18.23L189.56-18.23L189.56-18.23Q191.27-19.54 193.96-19.54L193.96-19.54L193.96-19.54Q196.64-19.54 198.31-18.21L198.31-18.21L198.31-18.21Q199.98-16.88 199.98-14.14L199.98-14.14L199.98-13.80L197.43-13.80L197.43-14.22L197.43-14.22Q197.43-15.65 196.46-16.46L196.46-16.46L196.46-16.46Q195.50-17.28 194.01-17.28L194.01-17.28L194.01-17.28Q192.42-17.28 191.44-16.59L191.44-16.59L191.44-16.59Q190.46-15.90 190.46-14.59L190.46-14.59L190.46-14.59Q190.46-13.61 191.02-12.98L191.02-12.98L191.02-12.98Q191.58-12.35 192.42-11.97L192.42-11.97L192.42-11.97Q193.26-11.59 194.71-11.12L194.71-11.12L194.71-11.12Q196.56-10.50 197.69-9.95L197.69-9.95L197.69-9.95Q198.83-9.41 199.63-8.33L199.63-8.33L199.63-8.33Q200.42-7.25 200.42-5.54L200.42-5.54L200.42-5.54Q200.42-2.46 198.67-1.06L198.67-1.06L198.67-1.06Q196.92 0.34 193.93 0.34L193.93 0.34ZM204.34 5.10L204.34 5.10Q203.34 5.10 202.69 4.87L202.69 4.87L202.69 3.28L203.50 3.28L203.50 3.28Q205.72 3.28 206.42 0L206.42 0L201.91-14.73L204.43-14.73L206.92-5.94L207.68-3.30L207.79-3.30L208.43-5.99L210.53-14.73L212.86-14.73L209.10-0.76L209.10-0.76Q208.38 1.99 207.26 3.54L207.26 3.54L207.26 3.54Q206.14 5.10 204.34 5.10L204.34 5.10ZM218.76 0.34L218.76 0.34Q216.38 0.34 215.21-0.91L215.21-0.91L215.21-0.91Q214.03-2.16 214.03-3.98L214.03-3.98L214.03-3.98Q214.03-4.31 214.05-4.44L214.05-4.44L214.05-4.44Q214.06-4.56 214.06-4.59L214.06-4.59L216.47-4.59L216.47-4.31L216.47-4.31Q216.47-3.00 217.14-2.34L217.14-2.34L217.14-2.34Q217.81-1.68 218.88-1.68L218.88-1.68L218.88-1.68Q219.83-1.68 220.46-2.25L220.46-2.25L220.46-2.25Q221.09-2.83 221.09-3.86L221.09-3.86L221.09-3.86Q221.09-4.65 220.70-5.15L220.70-5.15L220.70-5.15Q220.30-5.66 219.74-5.95L219.74-5.95L219.74-5.95Q219.18-6.24 218.18-6.61L218.18-6.61L218.18-6.61Q216.94-7.03 216.19-7.45L216.19-7.45L216.19-7.45Q215.43-7.87 214.90-8.69L214.90-8.69L214.90-8.69Q214.37-9.52 214.37-10.86L214.37-10.86L214.37-10.86Q214.37-12.80 215.61-13.93L215.61-13.93L215.61-13.93Q216.86-15.06 218.96-15.06L218.96-15.06L218.96-15.06Q220.95-15.06 222.07-13.90L222.07-13.90L222.07-13.90Q223.19-12.74 223.19-11.03L223.19-11.03L223.16-10.50L220.78-10.50L220.78-10.75L220.78-10.75Q220.78-11.73 220.30-12.39L220.30-12.39L220.30-12.39Q219.83-13.05 218.74-13.05L218.74-13.05L218.74-13.05Q217.64-13.05 217.20-12.43L217.20-12.43L217.20-12.43Q216.75-11.82 216.75-11.03L216.75-11.03L216.75-11.03Q216.75-10.08 217.41-9.62L217.41-9.62L217.41-9.62Q218.06-9.16 219.44-8.71L219.44-8.71L219.44-8.71Q220.70-8.26 221.51-7.83L221.51-7.83L221.51-7.83Q222.32-7.39 222.89-6.52L222.89-6.52L222.89-6.52Q223.47-5.66 223.47-4.20L223.47-4.20L223.47-4.20Q223.47-1.93 222.19-0.80L222.19-0.80L222.19-0.80Q220.92 0.34 218.76 0.34L218.76 0.34ZM228.87 0.28L228.87 0.28Q227.47 0.28 226.86-0.69L226.86-0.69L226.86-0.69Q226.24-1.65 226.24-3.11L226.24-3.11L226.24-12.68L224.98-12.68L224.98-14.73L226.24-14.73L226.74-18.82L228.54-18.82L228.54-14.73L230.52-14.73L230.52-12.68L228.54-12.68L228.54-3.05L228.54-3.05Q228.54-1.71 229.85-1.71L229.85-1.71L230.52-1.71L230.52-0.11L230.52-0.11Q230.22 0.06 229.75 0.17L229.75 0.17L229.75 0.17Q229.29 0.28 228.87 0.28L228.87 0.28ZM237.72 0.34L237.72 0.34Q234.92 0.34 233.53-1.50L233.53-1.50L233.53-1.50Q232.15-3.33 232.15-7.36L232.15-7.36L232.15-7.36Q232.15-11.31 233.52-13.19L233.52-13.19L233.52-13.19Q234.89-15.06 237.69-15.06L237.69-15.06L237.69-15.06Q240.16-15.06 241.35-13.43L241.35-13.43L241.35-13.43Q242.54-11.79 242.54-8.15L242.54-8.15L242.54-6.69L234.56-6.69L234.56-6.69Q234.58-4.12 235.35-2.91L235.35-2.91L235.35-2.91Q236.12-1.71 237.78-1.71L237.78-1.71L237.78-1.71Q238.90-1.71 239.58-2.60L239.58-2.60L239.58-2.60Q240.27-3.50 240.27-5.01L240.27-5.01L242.54-5.01L242.54-5.01Q242.54-2.55 241.21-1.11L241.21-1.11L241.21-1.11Q239.88 0.34 237.72 0.34L237.72 0.34ZM234.58-8.74L240.13-8.74L240.13-8.74Q240.13-10.84 239.51-11.93L239.51-11.93L239.51-11.93Q238.90-13.02 237.69-13.02L237.69-13.02L237.69-13.02Q236.21-13.02 235.47-11.97L235.47-11.97L235.47-11.97Q234.72-10.92 234.58-8.74L234.58-8.74ZM245.42 0L245.42-14.73L247.16-14.73L247.46-13.02L247.63-13.02L247.63-13.02Q248.72-15.06 250.99-15.06L250.99-15.06L250.99-15.06Q253.37-15.06 254.13-12.94L254.13-12.94L254.13-12.94Q254.69-13.97 255.65-14.52L255.65-14.52L255.65-14.52Q256.62-15.06 257.71-15.06L257.71-15.06L257.71-15.06Q261.18-15.06 261.18-10.61L261.18-10.61L261.18 0L258.89 0L258.89-10.44L258.89-10.44Q258.89-11.87 258.38-12.45L258.38-12.45L258.38-12.45Q257.88-13.02 256.98-13.02L256.98-13.02L256.98-13.02Q255.92-13.02 255.19-11.93L255.19-11.93L255.19-11.93Q254.46-10.84 254.46-8.99L254.46-8.99L254.46 0L252.17 0L252.17-10.44L252.17-10.44Q252.17-11.87 251.66-12.45L251.66-12.45L251.66-12.45Q251.16-13.02 250.26-13.02L250.26-13.02L250.26-13.02Q249.20-13.02 248.46-11.93L248.46-11.93L248.46-11.93Q247.72-10.84 247.72-8.99L247.72-8.99L247.72 0L245.42 0Z" fill="url(#editing-shadow-gradient1)"></path></g></g></g></g><g><g transform="translate(-131.27499878406525, 12.670000076293945)"><path d="M8.93 0.34L8.93 0.34Q5.35 0.34 3.36-2.18L3.36-2.18L3.36-2.18Q1.37-4.70 1.37-9.60L1.37-9.60L1.37-9.60Q1.37-14.50 3.36-17.02L3.36-17.02L3.36-17.02Q5.35-19.54 8.93-19.54L8.93-19.54L8.93-19.54Q12.52-19.54 14.50-17.02L14.50-17.02L14.50-17.02Q16.49-14.50 16.49-9.60L16.49-9.60L16.49-9.60Q16.49-4.70 14.50-2.18L14.50-2.18L14.50-2.18Q12.52 0.34 8.93 0.34L8.93 0.34ZM8.93-1.93L8.93-1.93Q11.28-1.93 12.60-3.70L12.60-3.70L12.60-3.70Q13.92-5.46 13.92-8.90L13.92-8.90L13.92-10.30L13.92-10.30Q13.92-13.75 12.60-15.51L12.60-15.51L12.60-15.51Q11.28-17.28 8.93-17.28L8.93-17.28L8.93-17.28Q6.58-17.28 5.26-15.51L5.26-15.51L5.26-15.51Q3.95-13.75 3.95-10.30L3.95-10.30L3.95-8.90L3.95-8.90Q3.95-5.46 5.26-3.70L5.26-3.70L5.26-3.70Q6.58-1.93 8.93-1.93L8.93-1.93ZM19.54 0L19.54-14.73L21.28-14.73L21.59-13.02L21.76-13.02L21.76-13.02Q22.90-15.06 25.31-15.06L25.31-15.06L25.31-15.06Q27.08-15.06 28.01-14.01L28.01-14.01L28.01-14.01Q28.95-12.96 28.95-10.61L28.95-10.61L28.95 0L26.66 0L26.66-10.44L26.66-10.44Q26.66-11.87 26.12-12.45L26.12-12.45L26.12-12.45Q25.59-13.02 24.58-13.02L24.58-13.02L24.58-13.02Q23.44-13.02 22.64-11.93L22.64-11.93L22.64-11.93Q21.84-10.84 21.84-8.99L21.84-8.99L21.84 0L19.54 0ZM32.03 0L32.03-20.24L34.33-20.24L34.33 0L32.03 0ZM37.13-17.50L37.13-20.24L39.42-20.24L39.42-17.50L37.13-17.50ZM37.13 0L37.13-14.73L39.42-14.73L39.42 0L37.13 0ZM42.50 0L42.50-14.73L44.24-14.73L44.55-13.02L44.72-13.02L44.72-13.02Q45.86-15.06 48.27-15.06L48.27-15.06L48.27-15.06Q50.04-15.06 50.97-14.01L50.97-14.01L50.97-14.01Q51.91-12.96 51.91-10.61L51.91-10.61L51.91 0L49.62 0L49.62-10.44L49.62-10.44Q49.62-11.87 49.08-12.45L49.08-12.45L49.08-12.45Q48.55-13.02 47.54-13.02L47.54-13.02L47.54-13.02Q46.40-13.02 45.60-11.93L45.60-11.93L45.60-11.93Q44.80-10.84 44.80-8.99L44.80-8.99L44.80 0L42.50 0ZM60.34 0.34L60.34 0.34Q57.54 0.34 56.15-1.50L56.15-1.50L56.15-1.50Q54.77-3.33 54.77-7.36L54.77-7.36L54.77-7.36Q54.77-11.31 56.14-13.19L56.14-13.19L56.14-13.19Q57.51-15.06 60.31-15.06L60.31-15.06L60.31-15.06Q62.78-15.06 63.97-13.43L63.97-13.43L63.97-13.43Q65.16-11.79 65.16-8.15L65.16-8.15L65.16-6.69L57.18-6.69L57.18-6.69Q57.20-4.12 57.97-2.91L57.97-2.91L57.97-2.91Q58.74-1.71 60.40-1.71L60.40-1.71L60.40-1.71Q61.52-1.71 62.20-2.60L62.20-2.60L62.20-2.60Q62.89-3.50 62.89-5.01L62.89-5.01L65.16-5.01L65.16-5.01Q65.16-2.55 63.83-1.11L63.83-1.11L63.83-1.11Q62.50 0.34 60.34 0.34L60.34 0.34ZM57.20-8.74L62.75-8.74L62.75-8.74Q62.75-10.84 62.13-11.93L62.13-11.93L62.13-11.93Q61.52-13.02 60.31-13.02L60.31-13.02L60.31-13.02Q58.83-13.02 58.09-11.97L58.09-11.97L58.09-11.97Q57.34-10.92 57.20-8.74L57.20-8.74ZM74.48 0L74.48-19.21L78.23-19.21L81.62-6.61L81.62-6.61Q81.84-5.74 82.03-4.26L82.03-4.26L82.03-4.26Q82.21-2.77 82.26-2.30L82.26-2.30L82.38-2.30L82.38-2.30Q82.40-2.77 82.59-4.27L82.59-4.27L82.59-4.27Q82.77-5.77 82.99-6.61L82.99-6.61L86.41-19.21L90.13-19.21L90.13 0L87.67 0L87.67-13.94L87.67-13.94Q87.67-14.36 87.75-15.46L87.75-15.46L87.75-15.46Q87.84-16.55 87.86-16.91L87.86-16.91L87.75-16.91L87.75-16.91Q87.67-16.55 87.44-15.46L87.44-15.46L87.44-15.46Q87.22-14.36 87.11-13.94L87.11-13.94L83.27 0L81.06 0L77.22-13.94L77.22-13.94Q77.06-14.64 76.89-15.58L76.89-15.58L76.89-15.58Q76.72-16.52 76.64-16.91L76.64-16.91L76.52-16.91L76.52-16.91Q76.55-16.52 76.61-15.58L76.61-15.58L76.61-15.58Q76.66-14.64 76.69-13.94L76.69-13.94L76.69 0L74.48 0ZM98.25 0.34L98.25 0.34Q95.65 0.34 94.32-1.55L94.32-1.55L94.32-1.55Q92.99-3.44 92.99-7.36L92.99-7.36L92.99-7.36Q92.99-11.28 94.32-13.17L94.32-13.17L94.32-13.17Q95.65-15.06 98.25-15.06L98.25-15.06L98.25-15.06Q100.86-15.06 102.19-13.17L102.19-13.17L102.19-13.17Q103.52-11.28 103.52-7.36L103.52-7.36L103.52-7.36Q103.52-3.44 102.19-1.55L102.19-1.55L102.19-1.55Q100.86 0.34 98.25 0.34L98.25 0.34ZM98.25-1.71L98.25-1.71Q101.11-1.71 101.11-6.83L101.11-6.83L101.11-7.90L101.11-7.90Q101.11-13.02 98.25-13.02L98.25-13.02L98.25-13.02Q95.40-13.02 95.40-7.90L95.40-7.90L95.40-6.83L95.40-6.83Q95.40-1.71 98.25-1.71L98.25-1.71ZM106.32 0L106.32-14.73L108.05-14.73L108.36-13.02L108.53-13.02L108.53-13.02Q109.68-15.06 112.08-15.06L112.08-15.06L112.08-15.06Q113.85-15.06 114.79-14.01L114.79-14.01L114.79-14.01Q115.72-12.96 115.72-10.61L115.72-10.61L115.72 0L113.43 0L113.43-10.44L113.43-10.44Q113.43-11.87 112.90-12.45L112.90-12.45L112.90-12.45Q112.36-13.02 111.36-13.02L111.36-13.02L111.36-13.02Q110.21-13.02 109.41-11.93L109.41-11.93L109.41-11.93Q108.61-10.84 108.61-8.99L108.61-8.99L108.61 0L106.32 0ZM118.80-17.50L118.80-20.24L121.10-20.24L121.10-17.50L118.80-17.50ZM118.80 0L118.80-14.73L121.10-14.73L121.10 0L118.80 0ZM126.78 0.28L126.78 0.28Q125.38 0.28 124.77-0.69L124.77-0.69L124.77-0.69Q124.15-1.65 124.15-3.11L124.15-3.11L124.15-12.68L122.89-12.68L122.89-14.73L124.15-14.73L124.66-18.82L126.45-18.82L126.45-14.73L128.44-14.73L128.44-12.68L126.45-12.68L126.45-3.05L126.45-3.05Q126.45-1.71 127.76-1.71L127.76-1.71L128.44-1.71L128.44-0.11L128.44-0.11Q128.13 0.06 127.67 0.17L127.67 0.17L127.67 0.17Q127.20 0.28 126.78 0.28L126.78 0.28ZM135.27 0.34L135.27 0.34Q132.66 0.34 131.33-1.55L131.33-1.55L131.33-1.55Q130.00-3.44 130.00-7.36L130.00-7.36L130.00-7.36Q130.00-11.28 131.33-13.17L131.33-13.17L131.33-13.17Q132.66-15.06 135.27-15.06L135.27-15.06L135.27-15.06Q137.87-15.06 139.20-13.17L139.20-13.17L139.20-13.17Q140.53-11.28 140.53-7.36L140.53-7.36L140.53-7.36Q140.53-3.44 139.20-1.55L139.20-1.55L139.20-1.55Q137.87 0.34 135.27 0.34L135.27 0.34ZM135.27-1.71L135.27-1.71Q138.12-1.71 138.12-6.83L138.12-6.83L138.12-7.90L138.12-7.90Q138.12-13.02 135.27-13.02L135.27-13.02L135.27-13.02Q132.41-13.02 132.41-7.90L132.41-7.90L132.41-6.83L132.41-6.83Q132.41-1.71 135.27-1.71L135.27-1.71ZM143.33 0L143.33-14.73L145.07-14.73L145.38-12.80L145.54-12.80L145.54-12.80Q145.85-13.78 146.47-14.42L146.47-14.42L146.47-14.42Q147.08-15.06 148.04-15.06L148.04-15.06L148.04-15.06Q148.43-15.06 148.74-14.97L148.74-14.97L148.74-14.97Q149.04-14.87 149.13-14.84L149.13-14.84L149.13-12.46L148.37-12.46L148.37-12.46Q147.17-12.46 146.40-11.63L146.40-11.63L146.40-11.63Q145.63-10.81 145.63-8.99L145.63-8.99L145.63 0L143.33 0ZM150.70-17.50L150.70-20.24L152.99-20.24L152.99-17.50L150.70-17.50ZM150.70 0L150.70-14.73L152.99-14.73L152.99 0L150.70 0ZM156.07 0L156.07-14.73L157.81-14.73L158.12-13.02L158.28-13.02L158.28-13.02Q159.43-15.06 161.84-15.06L161.84-15.06L161.84-15.06Q163.60-15.06 164.54-14.01L164.54-14.01L164.54-14.01Q165.48-12.96 165.48-10.61L165.48-10.61L165.48 0L163.18 0L163.18-10.44L163.18-10.44Q163.18-11.87 162.65-12.45L162.65-12.45L162.65-12.45Q162.12-13.02 161.11-13.02L161.11-13.02L161.11-13.02Q159.96-13.02 159.17-11.93L159.17-11.93L159.17-11.93Q158.37-10.84 158.37-8.99L158.37-8.99L158.37 0L156.07 0ZM171.16 5.10L171.16 5.10Q169.43 5.10 168.48 4.10L168.48 4.10L168.48 4.10Q167.52 3.11 167.52 1.60L167.52 1.60L167.52 1.60Q167.52 0.50 168.04-0.35L168.04-0.35L168.04-0.35Q168.56-1.20 169.43-1.54L169.43-1.54L169.43-1.54Q168.87-1.90 168.55-2.49L168.55-2.49L168.55-2.49Q168.22-3.08 168.22-3.75L168.22-3.75L168.22-3.75Q168.22-4.62 168.78-5.29L168.78-5.29L168.78-5.29Q169.34-5.96 170.30-6.30L170.30-6.30L170.30-6.30Q168.59-7.70 168.59-10.11L168.59-10.11L168.59-10.11Q168.59-12.43 169.88-13.75L169.88-13.75L169.88-13.75Q171.16-15.06 173.40-15.06L173.40-15.06L173.40-15.06Q174.55-15.06 175.53-14.53L175.53-14.53L175.53-14.53Q176.43-15.01 176.83-15.65L176.83-15.65L176.83-15.65Q177.24-16.30 177.35-17.11L177.35-17.11L179.37-17.11L179.37-17.11Q179.37-15.76 178.71-14.81L178.71-14.81L178.71-14.81Q178.05-13.86 176.90-13.58L176.90-13.58L176.90-13.58Q178.22-12.21 178.22-10.11L178.22-10.11L178.22-10.11Q178.22-7.84 176.95-6.51L176.95-6.51L176.95-6.51Q175.67-5.18 173.52-5.15L173.52-5.15L171.98-5.15L171.98-5.15Q171.42-5.15 171.02-4.77L171.02-4.77L171.02-4.77Q170.63-4.40 170.63-3.84L170.63-3.84L170.63-3.84Q170.63-3.30 171.02-2.91L171.02-2.91L171.02-2.91Q171.42-2.52 171.98-2.52L171.98-2.52L176.18-2.52L176.18-2.52Q177.74-2.52 178.70-1.53L178.70-1.53L178.70-1.53Q179.65-0.53 179.65 0.92L179.65 0.92L179.65 0.92Q179.65 2.74 178.51 3.92L178.51 3.92L178.51 3.92Q177.38 5.10 175.34 5.10L175.34 5.10L171.16 5.10ZM173.38-7.06L173.38-7.06Q174.58-7.06 175.24-7.87L175.24-7.87L175.24-7.87Q175.90-8.68 175.90-10.11L175.90-10.11L175.90-10.11Q175.90-11.59 175.24-12.38L175.24-12.38L175.24-12.38Q174.58-13.16 173.38-13.16L173.38-13.16L173.38-13.16Q172.17-13.16 171.53-12.35L171.53-12.35L171.53-12.35Q170.88-11.54 170.88-10.11L170.88-10.11L170.88-10.11Q170.88-8.62 171.53-7.84L171.53-7.84L171.53-7.84Q172.17-7.06 173.38-7.06L173.38-7.06ZM171.53 3.11L175.59 3.11L175.59 3.11Q176.32 3.11 176.82 2.60L176.82 2.60L176.82 2.60Q177.32 2.10 177.32 1.37L177.32 1.37L177.32 1.37Q177.32 0.62 176.88 0.14L176.88 0.14L176.88 0.14Q176.43-0.34 175.59-0.34L175.59-0.34L171.53-0.34L171.53-0.34Q170.69-0.34 170.25 0.14L170.25 0.14L170.25 0.14Q169.82 0.62 169.82 1.37L169.82 1.37L169.82 1.37Q169.82 2.13 170.27 2.62L170.27 2.62L170.27 2.62Q170.72 3.11 171.53 3.11L171.53 3.11ZM193.93 0.34L193.93 0.34Q191.07 0.34 189.27-1.06L189.27-1.06L189.27-1.06Q187.46-2.46 187.46-5.43L187.46-5.43L187.49-5.99L190.04-5.99L190.01-5.40L190.01-5.40Q190.01-3.70 191.06-2.81L191.06-2.81L191.06-2.81Q192.11-1.93 193.82-1.93L193.82-1.93L193.82-1.93Q195.75-1.93 196.80-2.76L196.80-2.76L196.80-2.76Q197.85-3.58 197.85-5.12L197.85-5.12L197.85-5.12Q197.85-6.16 197.27-6.82L197.27-6.82L197.27-6.82Q196.70-7.48 195.85-7.87L195.85-7.87L195.85-7.87Q194.99-8.26 193.51-8.74L193.51-8.74L193.51-8.74Q191.69-9.35 190.57-9.91L190.57-9.91L190.57-9.91Q189.45-10.47 188.65-11.55L188.65-11.55L188.65-11.55Q187.85-12.63 187.85-14.39L187.85-14.39L187.85-14.39Q187.85-16.91 189.56-18.23L189.56-18.23L189.56-18.23Q191.27-19.54 193.96-19.54L193.96-19.54L193.96-19.54Q196.64-19.54 198.31-18.21L198.31-18.21L198.31-18.21Q199.98-16.88 199.98-14.14L199.98-14.14L199.98-13.80L197.43-13.80L197.43-14.22L197.43-14.22Q197.43-15.65 196.46-16.46L196.46-16.46L196.46-16.46Q195.50-17.28 194.01-17.28L194.01-17.28L194.01-17.28Q192.42-17.28 191.44-16.59L191.44-16.59L191.44-16.59Q190.46-15.90 190.46-14.59L190.46-14.59L190.46-14.59Q190.46-13.61 191.02-12.98L191.02-12.98L191.02-12.98Q191.58-12.35 192.42-11.97L192.42-11.97L192.42-11.97Q193.26-11.59 194.71-11.12L194.71-11.12L194.71-11.12Q196.56-10.50 197.69-9.95L197.69-9.95L197.69-9.95Q198.83-9.41 199.63-8.33L199.63-8.33L199.63-8.33Q200.42-7.25 200.42-5.54L200.42-5.54L200.42-5.54Q200.42-2.46 198.67-1.06L198.67-1.06L198.67-1.06Q196.92 0.34 193.93 0.34L193.93 0.34ZM204.34 5.10L204.34 5.10Q203.34 5.10 202.69 4.87L202.69 4.87L202.69 3.28L203.50 3.28L203.50 3.28Q205.72 3.28 206.42 0L206.42 0L201.91-14.73L204.43-14.73L206.92-5.94L207.68-3.30L207.79-3.30L208.43-5.99L210.53-14.73L212.86-14.73L209.10-0.76L209.10-0.76Q208.38 1.99 207.26 3.54L207.26 3.54L207.26 3.54Q206.14 5.10 204.34 5.10L204.34 5.10ZM218.76 0.34L218.76 0.34Q216.38 0.34 215.21-0.91L215.21-0.91L215.21-0.91Q214.03-2.16 214.03-3.98L214.03-3.98L214.03-3.98Q214.03-4.31 214.05-4.44L214.05-4.44L214.05-4.44Q214.06-4.56 214.06-4.59L214.06-4.59L216.47-4.59L216.47-4.31L216.47-4.31Q216.47-3.00 217.14-2.34L217.14-2.34L217.14-2.34Q217.81-1.68 218.88-1.68L218.88-1.68L218.88-1.68Q219.83-1.68 220.46-2.25L220.46-2.25L220.46-2.25Q221.09-2.83 221.09-3.86L221.09-3.86L221.09-3.86Q221.09-4.65 220.70-5.15L220.70-5.15L220.70-5.15Q220.30-5.66 219.74-5.95L219.74-5.95L219.74-5.95Q219.18-6.24 218.18-6.61L218.18-6.61L218.18-6.61Q216.94-7.03 216.19-7.45L216.19-7.45L216.19-7.45Q215.43-7.87 214.90-8.69L214.90-8.69L214.90-8.69Q214.37-9.52 214.37-10.86L214.37-10.86L214.37-10.86Q214.37-12.80 215.61-13.93L215.61-13.93L215.61-13.93Q216.86-15.06 218.96-15.06L218.96-15.06L218.96-15.06Q220.95-15.06 222.07-13.90L222.07-13.90L222.07-13.90Q223.19-12.74 223.19-11.03L223.19-11.03L223.16-10.50L220.78-10.50L220.78-10.75L220.78-10.75Q220.78-11.73 220.30-12.39L220.30-12.39L220.30-12.39Q219.83-13.05 218.74-13.05L218.74-13.05L218.74-13.05Q217.64-13.05 217.20-12.43L217.20-12.43L217.20-12.43Q216.75-11.82 216.75-11.03L216.75-11.03L216.75-11.03Q216.75-10.08 217.41-9.62L217.41-9.62L217.41-9.62Q218.06-9.16 219.44-8.71L219.44-8.71L219.44-8.71Q220.70-8.26 221.51-7.83L221.51-7.83L221.51-7.83Q222.32-7.39 222.89-6.52L222.89-6.52L222.89-6.52Q223.47-5.66 223.47-4.20L223.47-4.20L223.47-4.20Q223.47-1.93 222.19-0.80L222.19-0.80L222.19-0.80Q220.92 0.34 218.76 0.34L218.76 0.34ZM228.87 0.28L228.87 0.28Q227.47 0.28 226.86-0.69L226.86-0.69L226.86-0.69Q226.24-1.65 226.24-3.11L226.24-3.11L226.24-12.68L224.98-12.68L224.98-14.73L226.24-14.73L226.74-18.82L228.54-18.82L228.54-14.73L230.52-14.73L230.52-12.68L228.54-12.68L228.54-3.05L228.54-3.05Q228.54-1.71 229.85-1.71L229.85-1.71L230.52-1.71L230.52-0.11L230.52-0.11Q230.22 0.06 229.75 0.17L229.75 0.17L229.75 0.17Q229.29 0.28 228.87 0.28L228.87 0.28ZM237.72 0.34L237.72 0.34Q234.92 0.34 233.53-1.50L233.53-1.50L233.53-1.50Q232.15-3.33 232.15-7.36L232.15-7.36L232.15-7.36Q232.15-11.31 233.52-13.19L233.52-13.19L233.52-13.19Q234.89-15.06 237.69-15.06L237.69-15.06L237.69-15.06Q240.16-15.06 241.35-13.43L241.35-13.43L241.35-13.43Q242.54-11.79 242.54-8.15L242.54-8.15L242.54-6.69L234.56-6.69L234.56-6.69Q234.58-4.12 235.35-2.91L235.35-2.91L235.35-2.91Q236.12-1.71 237.78-1.71L237.78-1.71L237.78-1.71Q238.90-1.71 239.58-2.60L239.58-2.60L239.58-2.60Q240.27-3.50 240.27-5.01L240.27-5.01L242.54-5.01L242.54-5.01Q242.54-2.55 241.21-1.11L241.21-1.11L241.21-1.11Q239.88 0.34 237.72 0.34L237.72 0.34ZM234.58-8.74L240.13-8.74L240.13-8.74Q240.13-10.84 239.51-11.93L239.51-11.93L239.51-11.93Q238.90-13.02 237.69-13.02L237.69-13.02L237.69-13.02Q236.21-13.02 235.47-11.97L235.47-11.97L235.47-11.97Q234.72-10.92 234.58-8.74L234.58-8.74ZM245.42 0L245.42-14.73L247.16-14.73L247.46-13.02L247.63-13.02L247.63-13.02Q248.72-15.06 250.99-15.06L250.99-15.06L250.99-15.06Q253.37-15.06 254.13-12.94L254.13-12.94L254.13-12.94Q254.69-13.97 255.65-14.52L255.65-14.52L255.65-14.52Q256.62-15.06 257.71-15.06L257.71-15.06L257.71-15.06Q261.18-15.06 261.18-10.61L261.18-10.61L261.18 0L258.89 0L258.89-10.44L258.89-10.44Q258.89-11.87 258.38-12.45L258.38-12.45L258.38-12.45Q257.88-13.02 256.98-13.02L256.98-13.02L256.98-13.02Q255.92-13.02 255.19-11.93L255.19-11.93L255.19-11.93Q254.46-10.84 254.46-8.99L254.46-8.99L254.46 0L252.17 0L252.17-10.44L252.17-10.44Q252.17-11.87 251.66-12.45L251.66-12.45L251.66-12.45Q251.16-13.02 250.26-13.02L250.26-13.02L250.26-13.02Q249.20-13.02 248.46-11.93L248.46-11.93L248.46-11.93Q247.72-10.84 247.72-8.99L247.72-8.99L247.72 0L245.42 0Z" fill="url(#editing-shadow-gradient2)"></path></g></g></g><style>text {
  font-size: 64px;
  font-family: Arial Black;
  dominant-baseline: central;
  text-anchor: middle;
}</style></svg>