<svg width="1108.3399414062499px" height="122.021240234375px" xmlns="http://www.w3.org/2000/svg" viewBox="-304.16997070312493 13.9893798828125 1108.3399414062499 122.021240234375" style="background: rgba(0, 0, 0, 0);" preserveAspectRatio="xMidYMid"><defs><filter id="editing-golden" x="-100%" y="-100%" width="300%" height="300%"><feFlood flood-color="#806527" result="flood"></feFlood><feFlood flood-color="#fff694" result="flood-light"></feFlood><feComposite operator="in" in="flood" in2="SourceAlpha" result="flood-comp"></feComposite><feGaussianBlur in="flood-comp" stdDeviation="3" result="blur"></feGaussianBlur><feOffset in="blur" dy="3" result="offset-blur"></feOffset><feComponentTransfer in="offset-blur" result="comp-blur"><feFuncA type="linear" slope="0.7" intercept="-0.1"></feFuncA></feComponentTransfer><feSpecularLighting surfaceScale="200" specularConstant="20" specularExponent="1" lighting-color="#fff" in="blur" result="specular"><fePointLight x="-250" y="-250" z="3500"></fePointLight></feSpecularLighting><feComponentTransfer in="specular" result="inspecular"><feFuncA type="linear" slope="-1" intercept="1"></feFuncA></feComponentTransfer><feComposite operator="in" in="flood-light" in2="inspecular" result="inspecular2"></feComposite><feComposite operator="in" in="inspecular2" in2="SourceAlpha" result="light"></feComposite><feMerge><feMergeNode in="comp-blur"></feMergeNode><feMergeNode in="SourceGraphic"></feMergeNode><feMergeNode in="light"></feMergeNode></feMerge></filter></defs><g filter="url(#editing-golden)"><g transform="translate(-149.23499751091003, 104.54781341552734)"><path d="M2.05-15.62L2.05-15.62L2.05-15.62Q2.05-27.71 8.32-35.33L8.32-35.33L8.32-35.33Q14.98-43.58 26.56-43.58L26.56-43.58L26.56-43.58Q34.94-43.58 39.17-39.52L39.17-39.52L39.17-39.52Q43.39-35.46 43.39-26.88L43.39-26.88L43.39-26.88Q43.39-13.82 36.74-6.21L36.74-6.21L36.74-6.21Q30.14 1.28 19.07 1.28L19.07 1.28L19.07 1.28Q10.43 1.28 6.24-3.04L6.24-3.04L6.24-3.04Q2.05-7.36 2.05-15.62ZM18.88-28.86L18.88-28.86L18.88-28.86Q16-17.34 16-8.26L16-8.26L16-8.26Q16-6.08 16.74-4.67L16.74-4.67L16.74-4.67Q17.47-3.26 19.42-3.26L19.42-3.26L19.42-3.26Q21.38-3.26 22.59-4.19L22.59-4.19L22.59-4.19Q23.81-5.12 24.77-7.23L24.77-7.23L24.77-7.23Q26.30-10.69 27.74-18.02L27.74-18.02L27.74-18.02Q29.18-25.34 29.31-28.38L29.31-28.38L29.31-28.38Q29.44-31.42 29.44-33.73L29.44-33.73L29.44-33.73Q29.44-36.03 28.74-37.50L28.74-37.50L28.74-37.50Q28.03-38.98 26.14-38.98L26.14-38.98L26.14-38.98Q24.26-38.98 22.98-37.82L22.98-37.82L22.98-37.82Q20.61-35.65 18.88-28.86ZM73.60 1.28L73.60 1.28L73.60 1.28Q65.86 1.28 65.86-4.74L65.86-4.74L65.86-4.74Q65.92-6.40 66.43-9.22L66.43-9.22L67.58-15.10L67.58-15.10Q69.31-23.42 69.31-25.28L69.31-25.28L69.31-25.28Q69.31-28.99 67.14-28.99L67.14-28.99L67.14-28.99Q63.49-28.99 61.57-19.46L61.57-19.46L57.79 0L44.93 1.28L51.58-32.70L62.08-33.92L61.06-27.65L61.06-27.65Q64.06-33.92 73.28-33.92L73.28-33.92L73.28-33.92Q77.76-33.92 79.65-32.03L79.65-32.03L79.65-32.03Q81.54-30.14 81.54-25.92L81.54-25.92L81.54-25.92Q81.54-21.95 79.49-12.67L79.49-12.67L79.49-12.67Q78.53-8.51 78.53-6.94L78.53-6.94L78.53-6.94Q78.53-5.38 79.39-4.48L79.39-4.48L79.39-4.48Q80.26-3.58 81.54-3.46L81.54-3.46L81.54-3.46Q80.90-1.28 78.69 0L78.69 0L78.69 0Q76.48 1.28 73.60 1.28ZM101.95-3.52L101.95-3.52L101.95-3.52Q99.97 1.28 93.63 1.28L93.63 1.28L93.63 1.28Q90.43 1.28 88.38-0.96L88.38-0.96L88.38-0.96Q86.72-2.82 86.72-4.93L86.72-4.93L86.72-4.93Q86.72-9.73 88.96-20.22L88.96-20.22L93.63-44.80L106.62-46.08L100.42-13.70L100.42-13.70Q99.33-8.96 99.33-7.30L99.33-7.30L99.33-7.30Q99.33-3.65 101.95-3.52ZM122.75-3.52L122.75-3.52L122.75-3.52Q120.77 1.28 114.43 1.28L114.43 1.28L114.43 1.28Q111.17 1.28 109.12-0.96L109.12-0.96L109.12-0.96Q107.39-2.94 107.39-4.93L107.39-4.93L107.39-4.93Q107.39-10.11 109.76-20.22L109.76-20.22L112.13-32.64L125.12-33.92L121.22-13.70L121.22-13.70Q120.13-8.96 120.13-7.30L120.13-7.30L120.13-7.30Q120.13-3.65 122.75-3.52ZM113.28-41.54L113.28-41.54L113.28-41.54Q113.28-44.03 115.36-45.38L115.36-45.38L115.36-45.38Q117.44-46.72 120.45-46.72L120.45-46.72L120.45-46.72Q123.46-46.72 125.28-45.38L125.28-45.38L125.28-45.38Q127.10-44.03 127.10-41.54L127.10-41.54L127.10-41.54Q127.10-39.04 125.09-37.76L125.09-37.76L125.09-37.76Q123.07-36.48 120.06-36.48L120.06-36.48L120.06-36.48Q117.06-36.48 115.17-37.76L115.17-37.76L115.17-37.76Q113.28-39.04 113.28-41.54ZM155.26 1.28L155.26 1.28L155.26 1.28Q147.52 1.28 147.52-4.74L147.52-4.74L147.52-4.74Q147.58-6.40 148.10-9.22L148.10-9.22L149.25-15.10L149.25-15.10Q150.98-23.42 150.98-25.28L150.98-25.28L150.98-25.28Q150.98-28.99 148.80-28.99L148.80-28.99L148.80-28.99Q145.15-28.99 143.23-19.46L143.23-19.46L139.46 0L126.59 1.28L133.25-32.70L143.74-33.92L142.72-27.65L142.72-27.65Q145.73-33.92 154.94-33.92L154.94-33.92L154.94-33.92Q159.42-33.92 161.31-32.03L161.31-32.03L161.31-32.03Q163.20-30.14 163.20-25.92L163.20-25.92L163.20-25.92Q163.20-21.95 161.15-12.67L161.15-12.67L161.15-12.67Q160.19-8.51 160.19-6.94L160.19-6.94L160.19-6.94Q160.19-5.38 161.06-4.48L161.06-4.48L161.06-4.48Q161.92-3.58 163.20-3.46L163.20-3.46L163.20-3.46Q162.56-1.28 160.35 0L160.35 0L160.35 0Q158.14 1.28 155.26 1.28ZM194.24-10.82L194.24-10.82L194.24-10.82Q195.84-9.73 195.84-7.33L195.84-7.33L195.84-7.33Q195.84-4.93 194.62-3.39L194.62-3.39L194.62-3.39Q193.41-1.86 191.42-0.83L191.42-0.83L191.42-0.83Q187.33 1.28 182.91 1.28L182.91 1.28L182.91 1.28Q178.50 1.28 175.90 0.32L175.90 0.32L175.90 0.32Q173.31-0.64 171.58-2.43L171.58-2.43L171.58-2.43Q168.19-5.82 168.19-12.03L168.19-12.03L168.19-12.03Q168.19-21.70 173.44-27.58L173.44-27.58L173.44-27.58Q179.07-33.92 188.86-33.92L188.86-33.92L188.86-33.92Q194.94-33.92 197.95-31.36L197.95-31.36L197.95-31.36Q200.19-29.44 200.19-26.30L200.19-26.30L200.19-26.30Q200.19-15.04 180.74-15.04L180.74-15.04L180.74-15.04Q180.48-13.38 180.48-11.97L180.48-11.97L180.48-11.97Q180.48-9.02 181.79-7.90L181.79-7.90L181.79-7.90Q183.10-6.78 185.54-6.78L185.54-6.78L185.54-6.78Q187.97-6.78 190.56-7.90L190.56-7.90L190.56-7.90Q193.15-9.02 194.24-10.82ZM181.18-17.79L181.18-17.79L181.18-17.79Q185.73-17.79 188.35-20.61L188.35-20.61L188.35-20.61Q190.98-23.30 190.98-27.58L190.98-27.58L190.98-27.58Q190.98-29.06 190.43-29.86L190.43-29.86L190.43-29.86Q189.89-30.66 188.80-30.66L188.80-30.66L188.80-30.66Q187.71-30.66 186.78-30.24L186.78-30.24L186.78-30.24Q185.86-29.82 184.90-28.42L184.90-28.42L184.90-28.42Q182.53-25.22 181.18-17.79ZM220.99 0L213.63 0L225.22-42.24L238.59-42.24L241.54-18.11L253.44-42.24L264.64-42.24L265.79-10.62L265.79-10.62Q266.05-4.35 269.12-2.43L269.12-2.43L269.12-2.43Q268.42-1.15 266.37 0.06L266.37 0.06L266.37 0.06Q264.32 1.28 261.60 1.28L261.60 1.28L261.60 1.28Q258.88 1.28 257.28 0.51L257.28 0.51L257.28 0.51Q255.68-0.26 254.78-1.54L254.78-1.54L254.78-1.54Q253.18-3.84 253.18-8.26L253.18-8.26L253.18-28.03L240.58 0L232.64 0L228.16-28.74L220.99 0ZM285.82 1.28L285.82 1.28L285.82 1.28Q271.74 1.28 271.74-11.97L271.74-11.97L271.74-11.97Q271.74-21.38 276.93-27.46L276.93-27.46L276.93-27.46Q282.43-33.92 291.97-33.92L291.97-33.92L291.97-33.92Q298.88-33.92 302.40-30.72L302.40-30.72L302.40-30.72Q305.92-27.52 305.92-20.80L305.92-20.80L305.92-20.80Q305.92-10.56 300.42-4.61L300.42-4.61L300.42-4.61Q295.04 1.28 285.82 1.28ZM287.49-26.56L287.49-26.56L287.49-26.56Q286.72-24.83 286.11-22.24L286.11-22.24L286.11-22.24Q285.50-19.65 284.74-15.55L284.74-15.55L284.74-15.55Q283.97-11.46 283.97-6.40L283.97-6.40L283.97-6.40Q283.97-4.74 284.51-3.65L284.51-3.65L284.51-3.65Q285.06-2.56 286.53-2.56L286.53-2.56L286.53-2.56Q288-2.56 288.93-3.26L288.93-3.26L288.93-3.26Q289.86-3.97 290.56-5.63L290.56-5.63L290.56-5.63Q291.84-8.58 292.86-14.05L292.86-14.05L292.86-14.05Q293.89-19.52 293.98-21.89L293.98-21.89L293.98-21.89Q294.08-24.26 294.08-26.02L294.08-26.02L294.08-26.02Q294.08-27.78 293.57-28.93L293.57-28.93L293.57-28.93Q293.06-30.08 291.62-30.08L291.62-30.08L291.62-30.08Q290.18-30.08 289.22-29.18L289.22-29.18L289.22-29.18Q288.26-28.29 287.49-26.56ZM336.77 1.28L336.77 1.28L336.77 1.28Q329.02 1.28 329.02-4.74L329.02-4.74L329.02-4.74Q329.09-6.40 329.60-9.22L329.60-9.22L330.75-15.10L330.75-15.10Q332.48-23.42 332.48-25.28L332.48-25.28L332.48-25.28Q332.48-28.99 330.30-28.99L330.30-28.99L330.30-28.99Q326.66-28.99 324.74-19.46L324.74-19.46L320.96 0L308.10 1.28L314.75-32.70L325.25-33.92L324.22-27.65L324.22-27.65Q327.23-33.92 336.45-33.92L336.45-33.92L336.45-33.92Q340.93-33.92 342.82-32.03L342.82-32.03L342.82-32.03Q344.70-30.14 344.70-25.92L344.70-25.92L344.70-25.92Q344.70-21.95 342.66-12.67L342.66-12.67L342.66-12.67Q341.70-8.51 341.70-6.94L341.70-6.94L341.70-6.94Q341.70-5.38 342.56-4.48L342.56-4.48L342.56-4.48Q343.42-3.58 344.70-3.46L344.70-3.46L344.70-3.46Q344.06-1.28 341.86 0L341.86 0L341.86 0Q339.65 1.28 336.77 1.28ZM365.18-3.52L365.18-3.52L365.18-3.52Q363.20 1.28 356.86 1.28L356.86 1.28L356.86 1.28Q353.60 1.28 351.55-0.96L351.55-0.96L351.55-0.96Q349.82-2.94 349.82-4.93L349.82-4.93L349.82-4.93Q349.82-10.11 352.19-20.22L352.19-20.22L354.56-32.64L367.55-33.92L363.65-13.70L363.65-13.70Q362.56-8.96 362.56-7.30L362.56-7.30L362.56-7.30Q362.56-3.65 365.18-3.52ZM355.71-41.54L355.71-41.54L355.71-41.54Q355.71-44.03 357.79-45.38L357.79-45.38L357.79-45.38Q359.87-46.72 362.88-46.72L362.88-46.72L362.88-46.72Q365.89-46.72 367.71-45.38L367.71-45.38L367.71-45.38Q369.54-44.03 369.54-41.54L369.54-41.54L369.54-41.54Q369.54-39.04 367.52-37.76L367.52-37.76L367.52-37.76Q365.50-36.48 362.50-36.48L362.50-36.48L362.50-36.48Q359.49-36.48 357.60-37.76L357.60-37.76L357.60-37.76Q355.71-39.04 355.71-41.54ZM371.65-6.40L371.65-6.40L371.65-6.40Q371.65-8.13 372.54-12.48L372.54-12.48L375.94-29.76L372.16-29.76L372.42-31.68L372.42-31.68Q380.10-33.98 387.52-39.62L387.52-39.62L390.59-39.62L389.06-32.64L394.05-32.64L393.47-29.76L388.54-29.76L385.28-12.48L385.28-12.48Q384.45-8.51 384.45-7.17L384.45-7.17L384.45-7.17Q384.45-4.10 387.14-3.46L387.14-3.46L387.14-3.46Q386.50-1.28 384.19 0L384.19 0L384.19 0Q381.89 1.28 378.62 1.28L378.62 1.28L378.62 1.28Q375.36 1.28 373.50-0.77L373.50-0.77L373.50-0.77Q371.65-2.82 371.65-6.40ZM407.42 1.28L407.42 1.28L407.42 1.28Q393.34 1.28 393.34-11.97L393.34-11.97L393.34-11.97Q393.34-21.38 398.53-27.46L398.53-27.46L398.53-27.46Q404.03-33.92 413.57-33.92L413.57-33.92L413.57-33.92Q420.48-33.92 424-30.72L424-30.72L424-30.72Q427.52-27.52 427.52-20.80L427.52-20.80L427.52-20.80Q427.52-10.56 422.02-4.61L422.02-4.61L422.02-4.61Q416.64 1.28 407.42 1.28ZM409.09-26.56L409.09-26.56L409.09-26.56Q408.32-24.83 407.71-22.24L407.71-22.24L407.71-22.24Q407.10-19.65 406.34-15.55L406.34-15.55L406.34-15.55Q405.57-11.46 405.57-6.40L405.57-6.40L405.57-6.40Q405.57-4.74 406.11-3.65L406.11-3.65L406.11-3.65Q406.66-2.56 408.13-2.56L408.13-2.56L408.13-2.56Q409.60-2.56 410.53-3.26L410.53-3.26L410.53-3.26Q411.46-3.97 412.16-5.63L412.16-5.63L412.16-5.63Q413.44-8.58 414.46-14.05L414.46-14.05L414.46-14.05Q415.49-19.52 415.58-21.89L415.58-21.89L415.58-21.89Q415.68-24.26 415.68-26.02L415.68-26.02L415.68-26.02Q415.68-27.78 415.17-28.93L415.17-28.93L415.17-28.93Q414.66-30.08 413.22-30.08L413.22-30.08L413.22-30.08Q411.78-30.08 410.82-29.18L410.82-29.18L410.82-29.18Q409.86-28.29 409.09-26.56ZM451.33-17.98L451.33-17.98L451.33-17.98Q453.63-22.08 453.63-26.24L453.63-26.24L453.63-26.24Q453.63-28.99 451.65-28.99L451.65-28.99L451.65-28.99Q450.11-28.99 448.51-26.37L448.51-26.37L448.51-26.37Q446.85-23.74 446.34-20.35L446.34-20.35L443.01 0L429.76 1.28L436.29-32.64L446.85-33.92L445.70-27.46L445.70-27.46Q448.83-33.92 455.87-33.92L455.87-33.92L455.87-33.92Q459.58-33.92 461.60-32L461.60-32L461.60-32Q463.62-30.08 463.62-26.14L463.62-26.14L463.62-26.14Q463.62-22.21 461.02-19.71L461.02-19.71L461.02-19.71Q458.43-17.22 454.02-17.22L454.02-17.22L454.02-17.22Q452.10-17.22 451.33-17.98ZM480-3.52L480-3.52L480-3.52Q478.02 1.28 471.68 1.28L471.68 1.28L471.68 1.28Q468.42 1.28 466.37-0.96L466.37-0.96L466.37-0.96Q464.64-2.94 464.64-4.93L464.64-4.93L464.64-4.93Q464.64-10.11 467.01-20.22L467.01-20.22L469.38-32.64L482.37-33.92L478.46-13.70L478.46-13.70Q477.38-8.96 477.38-7.30L477.38-7.30L477.38-7.30Q477.38-3.65 480-3.52ZM470.53-41.54L470.53-41.54L470.53-41.54Q470.53-44.03 472.61-45.38L472.61-45.38L472.61-45.38Q474.69-46.72 477.70-46.72L477.70-46.72L477.70-46.72Q480.70-46.72 482.53-45.38L482.53-45.38L482.53-45.38Q484.35-44.03 484.35-41.54L484.35-41.54L484.35-41.54Q484.35-39.04 482.34-37.76L482.34-37.76L482.34-37.76Q480.32-36.48 477.31-36.48L477.31-36.48L477.31-36.48Q474.30-36.48 472.42-37.76L472.42-37.76L472.42-37.76Q470.53-39.04 470.53-41.54ZM512.51 1.28L512.51 1.28L512.51 1.28Q504.77 1.28 504.77-4.74L504.77-4.74L504.77-4.74Q504.83-6.40 505.34-9.22L505.34-9.22L506.50-15.10L506.50-15.10Q508.22-23.42 508.22-25.28L508.22-25.28L508.22-25.28Q508.22-28.99 506.05-28.99L506.05-28.99L506.05-28.99Q502.40-28.99 500.48-19.46L500.48-19.46L496.70 0L483.84 1.28L490.50-32.70L500.99-33.92L499.97-27.65L499.97-27.65Q502.98-33.92 512.19-33.92L512.19-33.92L512.19-33.92Q516.67-33.92 518.56-32.03L518.56-32.03L518.56-32.03Q520.45-30.14 520.45-25.92L520.45-25.92L520.45-25.92Q520.45-21.95 518.40-12.67L518.40-12.67L518.40-12.67Q517.44-8.51 517.44-6.94L517.44-6.94L517.44-6.94Q517.44-5.38 518.30-4.48L518.30-4.48L518.30-4.48Q519.17-3.58 520.45-3.46L520.45-3.46L520.45-3.46Q519.81-1.28 517.60 0L517.60 0L517.60 0Q515.39 1.28 512.51 1.28ZM530.11-26.75L530.11-26.75L530.11-26.75Q532.29-29.82 535.58-31.87L535.58-31.87L535.58-31.87Q538.88-33.92 542.91-33.92L542.91-33.92L542.91-33.92Q546.94-33.92 548.86-32.64L548.86-32.64L561.41-33.92L557.06-9.34L557.06-9.34Q554.82 3.20 550.08 8.13L550.08 8.13L550.08 8.13Q545.54 12.80 536.70 12.80L536.70 12.80L536.70 12.80Q529.98 12.80 526.14 10.69L526.14 10.69L526.14 10.69Q522.30 8.58 522.30 5.06L522.30 5.06L522.30 5.06Q522.30 2.43 524.29 0.93L524.29 0.93L524.29 0.93Q526.27-0.58 529.34-0.58L529.34-0.58L529.34-0.58Q532.03-0.58 534.08 0.64L534.08 0.64L534.08 0.64Q535.30 1.28 535.87 2.18L535.87 2.18L535.87 2.18Q534.40 3.46 534.40 5.57L534.40 5.57L534.40 5.57Q534.40 8.32 536.96 8.32L536.96 8.32L536.96 8.32Q541.25 8.32 543.68-1.79L543.68-1.79L543.68-1.79Q544.38-4.54 544.96-7.30L544.96-7.30L544.96-7.30Q542.08-3.78 535.55-3.78L535.55-3.78L535.55-3.78Q531.01-3.78 528.38-5.95L528.38-5.95L528.38-5.95Q525.76-8.13 525.76-13.25L525.76-13.25L525.76-13.25Q525.76-16.45 526.85-20.06L526.85-20.06L526.85-20.06Q527.94-23.68 530.11-26.75ZM538.43-13.06L538.43-13.06L538.43-13.06Q538.43-8.70 540.67-8.70L540.67-8.70L540.67-8.70Q542.21-8.70 543.68-10.37L543.68-10.37L543.68-10.37Q544.83-11.71 545.28-13.70L545.28-13.70L548.54-30.14L548.54-30.14Q548.22-30.21 547.90-30.34L547.90-30.34L547.90-30.34Q547.26-30.59 546.43-30.59L546.43-30.59L546.43-30.59Q542.53-30.59 540.22-24.19L540.22-24.19L540.22-24.19Q538.43-19.20 538.43-13.06ZM602.05-29.57L602.05-29.57L602.05-29.57Q603.01-31.49 603.01-33.28L603.01-33.28L603.01-33.28Q603.01-35.07 602.82-36.06L602.82-36.06L602.82-36.06Q602.62-37.06 602.18-37.82L602.18-37.82L602.18-37.82Q601.22-39.49 599.30-39.49L599.30-39.49L599.30-39.49Q596.93-39.49 595.01-37.76L595.01-37.76L595.01-37.76Q592.96-35.97 592.96-33.15L592.96-33.15L592.96-33.15Q592.96-31.36 594.21-29.98L594.21-29.98L594.21-29.98Q595.46-28.61 597.38-27.33L597.38-27.33L597.38-27.33Q599.30-26.05 601.47-24.77L601.47-24.77L601.47-24.77Q603.65-23.49 605.57-21.95L605.57-21.95L605.57-21.95Q609.98-18.43 609.98-13.70L609.98-13.70L609.98-13.70Q609.98-10.50 608.29-7.78L608.29-7.78L608.29-7.78Q606.59-5.06 603.78-3.07L603.78-3.07L603.78-3.07Q597.63 1.28 589.50 1.28L589.50 1.28L589.50 1.28Q582.91 1.28 579.52-0.86L579.52-0.86L579.52-0.86Q576.13-3.01 576.13-6.27L576.13-6.27L576.13-6.27Q576.13-12.10 580.67-13.57L580.67-13.57L580.67-13.57Q581.95-14.02 583.90-14.02L583.90-14.02L583.90-14.02Q585.86-14.02 588.10-13.18L588.10-13.18L588.10-13.18Q587.07-10.56 587.07-8.19L587.07-8.19L587.07-8.19Q587.07-3.07 590.72-3.07L590.72-3.07L590.72-3.07Q593.09-3.07 595.04-4.80L595.04-4.80L595.04-4.80Q596.99-6.53 596.99-8.48L596.99-8.48L596.99-8.48Q596.99-10.43 595.74-11.84L595.74-11.84L595.74-11.84Q594.50-13.25 592.64-14.37L592.64-14.37L592.64-14.37Q590.78-15.49 588.64-16.58L588.64-16.58L588.64-16.58Q586.50-17.66 584.64-19.20L584.64-19.20L584.64-19.20Q580.29-22.72 580.29-28.35L580.29-28.35L580.29-28.35Q580.29-32 582.08-34.85L582.08-34.85L582.08-34.85Q583.87-37.70 586.75-39.62L586.75-39.62L586.75-39.62Q592.51-43.52 599.58-43.52L599.58-43.52L599.58-43.52Q606.66-43.52 610.08-41.41L610.08-41.41L610.08-41.41Q613.50-39.30 613.50-35.71L613.50-35.71L613.50-35.71Q613.50-32.58 611.07-30.59L611.07-30.59L611.07-30.59Q608.96-28.93 606.40-28.93L606.40-28.93L606.40-28.93Q603.84-28.93 602.05-29.57ZM635.20-7.23L635.20-7.23L635.20-7.23Q631.87-3.78 625.79-3.78L625.79-3.78L625.79-3.78Q618.18-3.78 616.58-9.34L616.58-9.34L616.58-9.34Q616.06-11.01 616.06-12.86L616.06-12.86L616.06-12.86Q616.06-14.72 616.45-16.64L616.45-16.64L619.46-32.64L632.45-33.92L628.93-15.30L628.93-15.30Q628.80-14.46 628.61-13.57L628.61-13.57L628.61-13.57Q628.42-12.67 628.42-11.74L628.42-11.74L628.42-11.74Q628.42-10.82 628.74-10.21L628.74-10.21L628.74-10.21Q629.06-9.60 629.50-9.22L629.50-9.22L629.50-9.22Q630.27-8.70 631.65-8.70L631.65-8.70L631.65-8.70Q633.02-8.70 634.21-10.37L634.21-10.37L634.21-10.37Q635.39-12.03 635.97-14.91L635.97-14.91L639.49-32.64L652.10-33.92L647.30-8.77L647.30-8.77Q644.93 3.52 640.06 8.38L640.06 8.38L640.06 8.38Q637.57 10.88 634.34 11.87L634.34 11.87L634.34 11.87Q631.10 12.86 626.94 12.86L626.94 12.86L626.94 12.86Q620.22 12.86 616.38 10.75L616.38 10.75L616.38 10.75Q612.54 8.64 612.54 5.12L612.54 5.12L612.54 5.12Q612.54 2.50 614.53 0.99L614.53 0.99L614.53 0.99Q616.51-0.51 619.58-0.51L619.58-0.51L619.58-0.51Q622.27-0.51 624.32 0.64L624.32 0.64L624.32 0.64Q625.54 1.34 626.11 2.24L626.11 2.24L626.11 2.24Q624.64 3.52 624.64 5.63L624.64 5.63L624.64 5.63Q624.64 8.45 627.20 8.45L627.20 8.45L627.20 8.45Q631.42 8.45 633.86-1.28L633.86-1.28L633.86-1.28Q634.56-4.16 635.20-7.23ZM673.54-22.46L673.54-22.46L673.54-22.46Q674.43-24.83 674.43-26.88L674.43-26.88L674.43-26.88Q674.43-30.66 671.36-30.66L671.36-30.66L671.36-30.66Q669.76-30.66 668.45-29.22L668.45-29.22L668.45-29.22Q667.14-27.78 667.14-25.98L667.14-25.98L667.14-25.98Q667.14-24.70 668.16-23.68L668.16-23.68L668.16-23.68Q669.63-22.27 673.41-19.97L673.41-19.97L673.41-19.97Q677.18-17.66 678.62-15.78L678.62-15.78L678.62-15.78Q680.06-13.89 680.06-11.30L680.06-11.30L680.06-11.30Q680.06-8.70 678.82-6.34L678.82-6.34L678.82-6.34Q677.57-3.97 675.33-2.30L675.33-2.30L675.33-2.30Q670.53 1.28 662.85 1.28L662.85 1.28L662.85 1.28Q658.69 1.28 655.49-0.90L655.49-0.90L655.49-0.90Q652.29-3.01 652.29-5.50L652.29-5.50L652.29-5.50Q652.29-8 654.11-9.47L654.11-9.47L654.11-9.47Q655.94-10.94 658.62-10.94L658.62-10.94L658.62-10.94Q661.31-10.94 662.98-9.92L662.98-9.92L662.98-9.92Q662.14-7.81 662.14-6.40L662.14-6.40L662.14-6.40Q662.14-2.18 665.73-2.18L665.73-2.18L665.73-2.18Q667.26-2.18 668.29-3.14L668.29-3.14L668.29-3.14Q669.31-4.10 669.31-5.76L669.31-5.76L669.31-5.76Q669.31-9.02 663.81-12.48L663.81-12.48L663.81-12.48Q659.33-15.42 658.30-16.58L658.30-16.58L658.30-16.58Q656.58-18.62 656.58-21.18L656.58-21.18L656.58-21.18Q656.58-23.74 657.79-26.18L657.79-26.18L657.79-26.18Q659.01-28.61 661.25-30.34L661.25-30.34L661.25-30.34Q665.92-33.92 674.05-33.92L674.05-33.92L674.05-33.92Q678.21-33.92 680.67-32.26L680.67-32.26L680.67-32.26Q683.14-30.59 683.14-27.78L683.14-27.78L683.14-27.78Q683.14-24.96 681.44-23.36L681.44-23.36L681.44-23.36Q679.74-21.76 676.67-21.76L676.67-21.76L676.67-21.76Q674.56-21.76 673.54-22.46ZM686.53-6.40L686.53-6.40L686.53-6.40Q686.53-8.13 687.42-12.48L687.42-12.48L690.82-29.76L687.04-29.76L687.30-31.68L687.30-31.68Q694.98-33.98 702.40-39.62L702.40-39.62L705.47-39.62L703.94-32.64L708.93-32.64L708.35-29.76L703.42-29.76L700.16-12.48L700.16-12.48Q699.33-8.51 699.33-7.17L699.33-7.17L699.33-7.17Q699.33-4.10 702.02-3.46L702.02-3.46L702.02-3.46Q701.38-1.28 699.07 0L699.07 0L699.07 0Q696.77 1.28 693.50 1.28L693.50 1.28L693.50 1.28Q690.24 1.28 688.38-0.77L688.38-0.77L688.38-0.77Q686.53-2.82 686.53-6.40ZM734.27-10.82L734.27-10.82L734.27-10.82Q735.87-9.73 735.87-7.33L735.87-7.33L735.87-7.33Q735.87-4.93 734.66-3.39L734.66-3.39L734.66-3.39Q733.44-1.86 731.46-0.83L731.46-0.83L731.46-0.83Q727.36 1.28 722.94 1.28L722.94 1.28L722.94 1.28Q718.53 1.28 715.94 0.32L715.94 0.32L715.94 0.32Q713.34-0.64 711.62-2.43L711.62-2.43L711.62-2.43Q708.22-5.82 708.22-12.03L708.22-12.03L708.22-12.03Q708.22-21.70 713.47-27.58L713.47-27.58L713.47-27.58Q719.10-33.92 728.90-33.92L728.90-33.92L728.90-33.92Q734.98-33.92 737.98-31.36L737.98-31.36L737.98-31.36Q740.22-29.44 740.22-26.30L740.22-26.30L740.22-26.30Q740.22-15.04 720.77-15.04L720.77-15.04L720.77-15.04Q720.51-13.38 720.51-11.97L720.51-11.97L720.51-11.97Q720.51-9.02 721.82-7.90L721.82-7.90L721.82-7.90Q723.14-6.78 725.57-6.78L725.57-6.78L725.57-6.78Q728.00-6.78 730.59-7.90L730.59-7.90L730.59-7.90Q733.18-9.02 734.27-10.82ZM721.22-17.79L721.22-17.79L721.22-17.79Q725.76-17.79 728.38-20.61L728.38-20.61L728.38-20.61Q731.01-23.30 731.01-27.58L731.01-27.58L731.01-27.58Q731.01-29.06 730.46-29.86L730.46-29.86L730.46-29.86Q729.92-30.66 728.83-30.66L728.83-30.66L728.83-30.66Q727.74-30.66 726.82-30.24L726.82-30.24L726.82-30.24Q725.89-29.82 724.93-28.42L724.93-28.42L724.93-28.42Q722.56-25.22 721.22-17.79ZM788.48 1.28L788.48 1.28L788.48 1.28Q780.74 1.28 780.74-4.74L780.74-4.74L780.74-4.74Q780.74-7.36 781.86-12.45L781.86-12.45L781.86-12.45Q782.98-17.54 783.36-19.58L783.36-19.58L783.36-19.58Q784.26-24.26 784.26-25.73L784.26-25.73L784.26-25.73Q784.26-28.99 781.82-28.99L781.82-28.99L781.82-28.99Q780.22-28.99 778.69-26.78L778.69-26.78L778.69-26.78Q777.15-24.58 776.45-20.16L776.45-20.16L772.48 0L760.00 1.28L763.46-16.13L763.46-16.13Q764.03-19.01 764.54-22.27L764.54-22.27L764.54-22.27Q765.06-25.54 765.06-26.05L765.06-26.05L765.06-26.05Q765.06-28.99 762.88-28.99L762.88-28.99L762.88-28.99Q761.41-28.99 759.81-26.82L759.81-26.82L759.81-26.82Q758.21-24.64 757.31-20.16L757.31-20.16L753.41 0L740.80 1.28L747.52-32.64L757.95-33.92L756.86-27.46L756.86-27.46Q758.53-30.91 761.60-32.42L761.60-32.42L761.60-32.42Q764.67-33.92 769.47-33.92L769.47-33.92L769.47-33.92Q772.22-33.92 774.02-32.58L774.02-32.58L774.02-32.58Q775.81-31.23 776.38-29.06L776.38-29.06L776.38-29.06Q777.47-31.30 780.26-32.61L780.26-32.61L780.26-32.61Q783.04-33.92 786.46-33.92L786.46-33.92L786.46-33.92Q789.89-33.92 791.58-33.18L791.58-33.18L791.58-33.18Q793.28-32.45 794.30-31.23L794.30-31.23L794.30-31.23Q796.03-28.99 796.03-24.90L796.03-24.90L796.03-24.90Q796.03-20.86 794.30-12.48L794.30-12.48L794.30-12.48Q793.41-8.38 793.41-6.88L793.41-6.88L793.41-6.88Q793.41-5.38 794.27-4.48L794.27-4.48L794.27-4.48Q795.14-3.58 796.42-3.46L796.42-3.46L796.42-3.46Q795.78-1.28 793.57 0L793.57 0L793.57 0Q791.36 1.28 788.48 1.28Z" fill="#f7c61d"></path></g></g><style>text {
  font-size: 64px;
  font-family: Arial Black;
  dominant-baseline: central;
  text-anchor: middle;
}</style></svg>